<?xml version="1.0" encoding="UTF-8" standalone="no"?>
<svg
   xmlns:dc="http://purl.org/dc/elements/1.1/"
   xmlns:cc="http://creativecommons.org/ns#"
   xmlns:rdf="http://www.w3.org/1999/02/22-rdf-syntax-ns#"
   xmlns:svg="http://www.w3.org/2000/svg"
   xmlns="http://www.w3.org/2000/svg"
   xmlns:sodipodi="http://sodipodi.sourceforge.net/DTD/sodipodi-0.dtd"
   xmlns:inkscape="http://www.inkscape.org/namespaces/inkscape"
   width="100mm"
   height="100mm"
   viewBox="-8 -108 116 116"
   version="1.1"
   id="svg6"
   sodipodi:docname="anaglyph.svg"
   inkscape:version="0.92.4 (5da689c313, 2019-01-14)">
  <metadata
     id="metadata12">
    <rdf:RDF>
      <cc:Work
         rdf:about="">
        <dc:format>image/svg+xml</dc:format>
        <dc:type
           rdf:resource="http://purl.org/dc/dcmitype/StillImage" />
        <dc:title>OpenSCAD Model</dc:title>
      </cc:Work>
    </rdf:RDF>
  </metadata>
  <defs
     id="defs10" />
  <sodipodi:namedview
     pagecolor="#ffffff"
     bordercolor="#666666"
     borderopacity="1"
     objecttolerance="10"
     gridtolerance="10"
     guidetolerance="10"
     inkscape:pageopacity="0"
     inkscape:pageshadow="2"
     inkscape:window-width="1195"
     inkscape:window-height="843"
     id="namedview8"
     showgrid="false"
     inkscape:zoom="0.62441667"
     inkscape:cx="-40.838116"
     inkscape:cy="188.97638"
     inkscape:window-x="0"
     inkscape:window-y="36"
     inkscape:window-maximized="0"
     inkscape:current-layer="svg6" />
  <title
     id="title2">OpenSCAD Model</title>
  <path
     style="fill:currentColor;stroke-width:0.17625521"
     d="m 22.331767,-88.04691 c -7.494006,-0.06461 -13.4895442,6.588085 -14.1090472,13.814059 -2.4278015,10.492064 -5.6718818,20.853325 -7.48579596,31.45289 0.37947316,7.744883 -1.6437107,16.561319 3.65317296,23.143817 4.21685,5.880579 11.7771042,8.239315 18.6785892,7.557577 8.45954,0.963513 17.48678,-3.661066 20.525918,-11.825398 1.737828,-4.30425 1.275373,-9.048172 1.878743,-13.565054 2.780807,0.638505 7.928827,-1.322252 9.137952,1.041999 0.274708,6.634446 0.644325,14.089739 5.959249,18.861415 4.522274,4.734561 11.305438,5.973454 17.58836,5.499376 8.897136,0.920134 18.032456,-4.780214 20.396935,-13.535891 1.352546,-6.205024 0.54636,-12.707519 0.52717,-18.999377 -2.933736,-11.815782 -5.565505,-23.752837 -9.022434,-35.415628 -3.199779,-7.221283 -12.54113,-10.000307 -19.442423,-6.503235 -2.455923,0.635392 -0.635723,4.215527 0.512587,5.278411 3.362515,-0.712213 7.219473,-2.381969 10.49178,-0.222085 5.380465,3.077155 4.636163,10.303014 6.553651,15.365438 1.641253,6.562564 3.279898,13.12578 4.922916,19.687903 -11.829616,-4.390007 -25.147337,-3.736193 -36.522679,1.747506 -4.810869,-0.246406 -9.956234,0.726785 -14.575646,-0.531654 -11.044931,-5.192194 -23.746605,-5.317862 -35.1172718,-1.237164 2.7985155,-10.50704 4.9782518,-21.218263 8.1385758,-31.606552 2.215493,-4.470517 8.154351,-5.655452 12.367152,-3.380608 2.519603,1.112817 3.05905,-2.509735 3.159645,-4.192672 -1.847608,-1.9262 -5.569258,-2.317127 -8.217099,-2.435073 z m 1.13734,44.693793 c 4.647265,0.07496 9.395351,0.877931 13.718716,2.494516 3.543471,2.485412 1.904872,7.193196 1.876497,10.757602 -0.705018,6.191409 -5.804169,12.04238 -12.354807,11.853439 -6.678346,1.136565 -15.506041,0.08708 -18.6561609,-6.852068 -2.0874902,-4.661986 -1.3653113,-9.931217 -1.3044528,-14.854935 5.3095777,-2.112665 10.9838717,-3.446287 16.7202077,-3.398554 z m 53.215972,0 c 4.908712,0.08961 9.967153,0.850146 14.519568,2.630234 3.2649,2.441638 1.927772,6.945714 2.181584,10.405408 -0.479476,6.17607 -5.465976,12.083318 -11.96112,12.045239 -6.699476,1.147508 -15.54919,0.26515 -18.883844,-6.607551 -2.16261,-4.661705 -1.731064,-9.942922 -2.187189,-14.927841 5.151076,-2.201142 10.706169,-3.587256 16.331001,-3.545489 z"
     id="path3972"
     inkscape:connector-curvature="0" />
</svg>
